<?xml version="1.0" encoding="UTF-8"?>
<svg xmlns="http://www.w3.org/2000/svg" id="Ebene_1" data-name="Ebene 1" version="1.1" viewBox="0 0 448.2 200.1">
  <defs>
    <style>
      .cls-1 {
        fill: #fff;
        stroke-width: 0px;
      }
    </style>
  </defs>
  <path class="cls-1" d="M48.6,35.5H0L7.2,0h141.7l-7.2,35.5h-48.4l-24.6,122.7H24l24.6-122.7Z"></path>
  <path class="cls-1" d="M275.5,13.4c11.1,8.9,16.7,21.4,16.7,37.5s-3.2,24.9-9.6,34.8-15.5,17.6-27.3,23.1c-11.8,5.4-25.6,8.1-41.2,8.1h-31.6l-8.1,41.4h-44.7L161.3.1h66.9c20.3-.1,36.1,4.4,47.3,13.3ZM239,74.6c5.3-4.7,8-11.3,8-19.9s-2.1-11.3-6.4-14.6c-4.3-3.2-10.4-4.9-18.4-4.9h-23.5l-9.3,46.3h26.7c9.9,0,17.5-2.2,22.9-6.9Z"></path>
  <path class="cls-1" d="M436.7,87.8c-7.7,10.5-18.5,18.1-32.3,22.9l26.9,47.5h-46.8l-23.5-42h-22.6l-8.4,42h-44.7L316.9,0h67.6c20.2,0,35.9,4.4,47,13.3,11.1,9,16.7,21.3,16.7,37.1s-3.8,27-11.5,37.4ZM396.4,40.2c-4.4-3.2-10.5-4.9-18.3-4.9h-23.5l-9.5,46.3h26.7c9.9,0,17.6-2.3,23.1-7,5.4-4.7,8.1-11.3,8.1-19.9s-2.2-11.3-6.6-14.5h0Z"></path>
  <path class="cls-1" d="M443.9,113.8c1.4.8,2.4,1.8,3.2,3.2.8,1.4,1.1,2.8,1.1,4.5s-.4,3.1-1.2,4.5c-.8,1.4-1.9,2.4-3.2,3.2-1.4.8-2.8,1.2-4.5,1.2s-3.1-.4-4.5-1.2-2.4-1.9-3.2-3.2-1.2-2.8-1.2-4.5.4-3.1,1.2-4.5,1.9-2.4,3.2-3.2c1.4-.8,2.8-1.2,4.5-1.2s3.2.4,4.6,1.2h0ZM443.3,128.2c1.2-.7,2.1-1.6,2.8-2.8s1-2.5,1-4-.3-2.7-1-3.9c-.7-1.2-1.6-2.1-2.7-2.8-1.2-.7-2.5-1-3.9-1s-2.7.3-3.9,1c-1.2.7-2.1,1.6-2.8,2.8-.7,1.2-1,2.5-1,3.9s.3,2.7,1,3.9,1.6,2.1,2.8,2.8,2.5,1,3.9,1c1.3.2,2.6-.2,3.8-.9h0ZM443.3,121.8c-.4.5-.9.9-1.5,1.1l2.3,3.5h-1.8l-2.1-3.2h-2.8v3.2h-1.7v-10h4c1.2,0,2.3.3,3,.9s1.1,1.5,1.1,2.5c.1.8,0,1.5-.5,2h0ZM441.6,121.4c.5-.3.7-.9.7-1.5s-.2-1.1-.7-1.5-1.1-.5-1.9-.5h-2.2v4h2.2c.8,0,1.4-.2,1.9-.5h0Z"></path>
  <g>
    <path class="cls-1" d="M35.5,200.1c-2.1,0-3.9-.4-5.4-1.1-1.5-.8-2.7-1.8-3.5-3.2-.8-1.4-1.2-2.9-1.2-4.7s.3-3.4.9-5c.6-1.5,1.5-2.9,2.6-4,1.1-1.1,2.5-2,4.1-2.7,1.6-.6,3.4-1,5.4-1s3.6.3,5,.9c1.4.6,2.6,1.5,3.4,2.6l-2.8,2.3c-.7-.8-1.5-1.4-2.5-1.8-1-.4-2.1-.6-3.3-.6s-2.6.2-3.7.7c-1.1.5-2,1.1-2.8,1.9-.8.8-1.4,1.8-1.8,2.9-.4,1.1-.6,2.3-.6,3.5s.2,2.2.8,3,1.2,1.6,2.2,2c1,.5,2.2.7,3.7.7s2.1-.2,3.1-.6c1-.4,1.9-.9,2.7-1.7l1.5,3.1c-1,.8-2.2,1.5-3.6,1.9-1.4.5-2.8.7-4.2.7ZM39.8,196.9l1.6-7.9h3.7l-1.7,8.5-3.5-.6Z"></path>
    <path class="cls-1" d="M104.4,199.8l4.2-21h3.9l-3.5,17.7h11l-.7,3.3h-14.9Z"></path>
    <path class="cls-1" d="M188.9,200.1c-2.1,0-3.9-.4-5.4-1.1s-2.6-1.8-3.4-3.2c-.8-1.4-1.2-2.9-1.2-4.7s.3-3.4.9-5c.6-1.5,1.5-2.9,2.6-4,1.1-1.1,2.5-2,4.1-2.7,1.6-.6,3.3-1,5.3-1s3.9.4,5.4,1.1c1.5.8,2.6,1.8,3.4,3.2.8,1.4,1.2,2.9,1.2,4.7s-.3,3.4-.9,5c-.6,1.5-1.5,2.9-2.6,4-1.1,1.1-2.5,2-4.1,2.7-1.6.7-3.3,1-5.3,1ZM189.2,196.6c1.3,0,2.5-.2,3.6-.7,1.1-.5,2-1.1,2.7-2,.8-.8,1.3-1.8,1.7-2.9.4-1.1.6-2.2.6-3.4s-.2-2.1-.8-3c-.5-.9-1.2-1.6-2.2-2-1-.5-2.1-.7-3.5-.7s-2.5.2-3.6.7-2,1.1-2.7,2-1.3,1.8-1.7,2.9c-.4,1.1-.6,2.2-.6,3.4s.2,2.2.7,3c.5.9,1.2,1.6,2.2,2,1,.5,2.1.7,3.5.7Z"></path>
    <path class="cls-1" d="M260,199.8l4.2-21h9.7c2.2,0,3.9.4,5.1,1.2,1.2.8,1.8,2,1.8,3.5s-.3,2.4-1,3.3-1.5,1.6-2.6,2c-1,.5-2.2.7-3.4.7l.8-1c1.6,0,2.9.4,3.8,1.2,1,.8,1.5,1.9,1.5,3.5s-.4,2.7-1.2,3.7c-.8,1-1.9,1.7-3.3,2.2-1.4.5-3,.7-4.8.7h-10.5ZM264.5,196.7h6.3c1.6,0,2.9-.3,3.8-.9s1.3-1.5,1.3-2.6-.3-1.6-1-2c-.7-.4-1.6-.6-2.8-.6h-7l.6-3h6.1c1,0,1.8-.1,2.5-.4.7-.2,1.3-.6,1.7-1.2.4-.5.6-1.2.6-1.9s-.3-1.4-.9-1.8-1.5-.6-2.7-.6h-5.5l-3,14.9Z"></path>
    <path class="cls-1" d="M336.3,199.8l13.7-21h3.9l5.2,21h-3.9l-4.4-19h1.6l-11.9,19h-4.2ZM341.6,194.9l1.7-3.1h11.3l.5,3.1h-13.5Z"></path>
    <path class="cls-1" d="M418.1,199.8l4.2-21h3.9l-3.5,17.7h11l-.7,3.3h-14.9Z"></path>
  </g>
</svg>
